<?xml version="1.0" encoding="UTF-8"?>
<svg id="Capa_2" data-name="Capa 2" xmlns="http://www.w3.org/2000/svg" xmlns:xlink="http://www.w3.org/1999/xlink" viewBox="0 0 369.81 77.09">
  <defs>
    <style>
      .cls-1 {
        clip-path: url(#clippath);
      }

      .cls-2 {
        fill: none;
      }

      .cls-2, .cls-3 {
        stroke-width: 0px;
      }

      .cls-4 {
        clip-path: url(#clippath-1);
      }

      .cls-5 {
        clip-path: url(#clippath-4);
      }

      .cls-6 {
        clip-path: url(#clippath-3);
      }

      .cls-7 {
        clip-path: url(#clippath-2);
      }

      .cls-8 {
        clip-path: url(#clippath-7);
      }

      .cls-9 {
        clip-path: url(#clippath-6);
      }

      .cls-10 {
        clip-path: url(#clippath-5);
      }

      .cls-3 {
        fill: url(#Degradado_sin_nombre_6);
      }
    </style>
    <clipPath id="clippath">
      <path class="cls-2" d="M74.51,45.63c-.03-3.51-.8-6.86-2.56-9.91-1.9-3.28-4.48-5.96-7.73-7.94-1.23-.75-2.56-1.42-3.93-1.87-1.89-.62-3.85-1-5.87-1.1-2.94-.15-5.79.24-8.55,1.19-3.06,1.06-5.67,2.88-7.94,5.19-.67.68-.67.68-1.35-.02-2.25-2.3-4.85-4.09-7.89-5.16-1.95-.68-3.96-1.08-6.04-1.19-2.96-.16-5.86.21-8.64,1.18-3.01,1.05-5.58,2.83-7.84,5.08C2.24,35.02.12,39.76.06,45.29c-.1,8.8-.03,17.61-.03,26.41,0,.23.03.46.08.69.4,1.89,2.32,4,4.61,4.27,3.23.38,6.2-2.06,6.2-5.31,0-8.39,0-16.77,0-25.16,0-2.23.49-4.31,1.8-6.17,1.3-1.84,2.96-3.2,5.05-4.01,1.57-.6,3.21-.71,4.89-.53,3.27.37,5.71,2.05,7.53,4.7,1.27,1.85,1.72,3.92,1.71,6.15-.03,8.34.03,16.68-.04,25.02-.02,1.95,1.76,4.62,3.86,5.14,2.89.71,5.36-.57,6.59-3.21.4-.85.31-1.75.31-2.65,0-8.25-.02-16.49.02-24.74.02-3.62,1.63-6.49,4.54-8.61,1.5-1.09,3.2-1.72,5.08-1.84,1.63-.11,3.24-.02,4.73.65,4.32,1.93,6.64,5.28,6.67,10.03.05,8.45,0,16.89,0,25.34,0,.31,0,.63.07.92.97,3.79,5.03,5.54,8.31,3.43,1.57-1.01,2.44-2.49,2.45-4.38.02-4.47,0-8.94,0-13.41,0-4.13.03-8.26,0-12.39Z"/>
    </clipPath>
    <linearGradient id="Degradado_sin_nombre_6" data-name="Degradado sin nombre 6" x1="0" y1="38.55" x2="369.81" y2="38.55" gradientUnits="userSpaceOnUse">
      <stop offset="0" stop-color="#d07985"/>
      <stop offset="1" stop-color="#6a3fe3"/>
    </linearGradient>
    <clipPath id="clippath-1">
      <path class="cls-2" d="M192.43,5.15c0-2.43-1.61-4.46-3.95-5.01-1.74-.41-3.86.4-4.89,1.86-.71,1.01-1.05,2.08-1.05,3.34.03,8.14,0,16.28,0,24.41,0,.24-.04.48-.07.82-.27-.23-.42-.38-.59-.5-1.62-1.11-3.29-2.13-5.09-2.93-2.36-1.05-4.82-1.64-7.37-1.95-3.5-.42-6.96-.12-10.36.77-2.5.65-4.82,1.76-6.97,3.19-3.43,2.28-6.21,5.21-8.36,8.7-2.16,3.51-3.18,7.39-3.47,11.48-.24,3.36.23,6.65,1.22,9.85,1.04,3.34,2.85,6.26,5.17,8.87,4.39,4.95,9.76,8.06,16.42,8.77,3.59.39,7.13.23,10.63-.78,2.24-.64,4.34-1.58,6.29-2.82,2.41-1.52,4.49-3.43,6.35-5.6,2.82-3.28,4.63-7.02,5.53-11.24.5-2.35.56-4.72.56-7.11-.01-14.71,0-29.43,0-44.14ZM181.78,52.11c-.58,7.84-7.53,14.77-15.94,14.28-8.83-.13-15.54-7.78-14.99-16.37.53-8.29,7.75-14.56,15.77-14.42,9.02.15,15.79,7.96,15.16,16.52Z"/>
    </clipPath>
    <clipPath id="clippath-2">
      <path class="cls-2" d="M252.08,43.3c-.39-1.84-1.08-3.58-1.91-5.26-.91-1.83-2.12-3.45-3.48-4.97-3.18-3.55-6.97-6.12-11.61-7.4-2.9-.79-5.83-1.11-8.82-.97-2.82.13-5.56.69-8.18,1.72-3.6,1.42-6.67,3.64-9.31,6.45-3.41,3.63-5.7,7.84-6.56,12.77-.64,3.68-.61,7.38.2,11.02.66,2.96,1.82,5.73,3.54,8.27,3.69,5.44,8.62,9.14,15.02,10.81,5.03,1.32,10.11,1.29,15.2.42,2.96-.51,5.75-1.53,8.25-3.2,1.44-.96,2.81-2.02,4.19-3.07.78-.59,1.33-1.37,1.63-2.32.66-2.08-.4-4.55-2.35-5.37-1.14-.48-2.31-.33-3.47-.04-.45.11-.9.26-1.3.48-1.13.63-2.21,1.36-3.35,1.96-1.92,1.01-3.98,1.65-6.13,1.89-1.77.2-3.55.33-5.33.09-1.62-.22-3.28-.35-4.84-.81-2.55-.75-4.83-2.05-6.74-3.95-1.94-1.93-3.23-4.2-3.87-6.86-.09-.36-.02-.51.38-.51,5.71,0,11.43,0,17.14,0v-.14c5.62,0,11.24.01,16.86,0,3.39-.01,5.62-2.63,5.5-5.51-.08-1.86-.29-3.7-.67-5.52ZM241.44,46.81c-4.72,0-9.44,0-14.16,0v.1c-4.72,0-9.44,0-14.16,0-.42,0-.43-.2-.37-.49.28-1.37.75-2.67,1.38-3.93,1.22-2.43,3.02-4.34,5.33-5.73,1.99-1.2,4.15-1.94,6.51-2.12,2.17-.17,4.32-.09,6.39.52,2.18.65,4.11,1.8,5.74,3.46,2.13,2.17,3.31,4.77,3.85,7.72.09.48-.18.46-.5.46Z"/>
    </clipPath>
    <clipPath id="clippath-3">
      <path class="cls-2" d="M369.8,53.74c0-2.46.05-4.92-.37-7.36-.41-2.36-1.12-4.64-2.21-6.77-1.99-3.91-4.81-7.14-8.33-9.77-2.28-1.7-4.78-2.99-7.51-3.77-3.16-.91-6.4-1.25-9.7-1-4.34.34-8.39,1.53-12.04,3.95-3.54,2.34-6.4,5.34-8.61,8.96-1.5,2.45-2.42,5.11-2.97,7.91-.53,2.7-.54,5.44-.29,8.18.25,2.71,1.02,5.29,2.09,7.76.94,2.17,2.3,4.09,3.83,5.9,2.89,3.41,6.37,6,10.54,7.62,2.78,1.08,5.68,1.57,8.67,1.67,3.3.11,6.44-.48,9.44-1.83,2.65-1.2,4.96-2.9,7.07-4.89.16-.15.34-.28.51-.43.04.03.09.05.13.08,0,.55.02,1.11,0,1.66-.05.97.17,1.87.65,2.71.94,1.62,2.29,2.58,4.2,2.59.58,0,1.22-.04,1.72-.28,2-.95,3.14-2.56,3.16-4.79.04-6.03.02-12.07.02-18.1ZM343.77,66.41c-8.54.12-15.42-6.8-15.53-15.23-.12-8.75,7.12-15.53,15.47-15.58,8.54-.05,15.45,6.98,15.5,15.28.05,8.42-6.99,15.73-15.43,15.53Z"/>
    </clipPath>
    <clipPath id="clippath-4">
      <path class="cls-2" d="M107.5,24.95c-14.53-.03-26.53,12.14-26.16,26.04-.37,14.03,11.71,26.04,26,26.11,14.26.06,26.17-11.9,26.22-26.02.04-13.73-11.57-26.09-26.05-26.12ZM107.48,66.45c-8.45-.02-15.39-6.71-15.56-15.14-.17-8.61,6.89-15.68,15.51-15.72,8.54-.03,15.61,7.01,15.42,15.45.15,8.11-6.79,15.42-15.37,15.4Z"/>
    </clipPath>
    <clipPath id="clippath-5">
      <path class="cls-2" d="M286.32,66.2c-.7-.16-1.44-.18-2.16-.21-2.23-.07-4.35-.57-6.33-1.61-2.08-1.1-3.39-2.86-4.29-4.95-.92-2.15-1.22-4.43-1.22-6.76,0-15.87,0-31.74,0-47.62,0-.28-.01-.56-.09-.83-.43-1.49-1.24-2.7-2.63-3.49-1.56-.89-3.21-.98-4.78-.27-2.11.95-3.28,2.64-3.27,5.05.01,8.14,0,16.27,0,24.41h0c0,7.58.02,15.16,0,22.74-.01,3.57.67,7.02,1.87,10.36.84,2.34,2.23,4.37,3.82,6.26,2.49,2.95,5.6,4.99,9.26,6.18,2.7.88,5.48,1.29,8.32,1.24.74-.01,1.55-.13,2.2-.44,2.14-1.01,3.21-2.77,3.19-5.16-.02-2.06-1.6-4.41-3.89-4.92Z"/>
    </clipPath>
    <clipPath id="clippath-6">
      <path class="cls-2" d="M306.82,25.52c-1.63-.97-3.37-1.06-5.05-.14-1.81.99-2.88,2.55-2.88,4.65-.02,13.74.02,27.47-.02,41.21-.01,3.57,3.79,7.08,8.06,4.69,1.67-.93,2.67-2.43,2.67-4.43.01-6.91,0-13.83,0-20.74h.02c0-6.79-.02-13.58.01-20.37.01-2.22-1-3.79-2.82-4.88Z"/>
    </clipPath>
    <clipPath id="clippath-7">
      <path class="cls-2" d="M304.16,6.01c-3.72.05-6.29,3.37-6.18,6.21-.13,2.77,2.26,6.42,6.35,6.37,3.88-.04,6.11-3.44,6.09-6.36-.01-3.16-2.59-6.27-6.27-6.22Z"/>
    </clipPath>
  </defs>
  <g id="DESIGN">
    <g class="cls-1">
      <rect class="cls-3" x="0" width="369.81" height="77.09"/>
    </g>
    <g class="cls-4">
      <rect class="cls-3" x="0" width="369.81" height="77.09"/>
    </g>
    <g class="cls-7">
      <rect class="cls-3" x="0" width="369.81" height="77.09"/>
    </g>
    <g class="cls-6">
      <rect class="cls-3" x="0" width="369.81" height="77.09"/>
    </g>
    <g class="cls-5">
      <rect class="cls-3" x="0" width="369.81" height="77.09"/>
    </g>
    <g class="cls-10">
      <rect class="cls-3" x="0" width="369.81" height="77.09"/>
    </g>
    <g class="cls-9">
      <rect class="cls-3" x="0" width="369.81" height="77.09"/>
    </g>
    <g class="cls-8">
      <rect class="cls-3" x="0" width="369.81" height="77.09"/>
    </g>
  </g>
</svg>